<?xml version="1.0" encoding="UTF-8" standalone="no"?>
<!-- Created with Inkscape (http://www.inkscape.org/) -->
<svg xmlns:dc="http://purl.org/dc/elements/1.1/" xmlns:cc="http://creativecommons.org/ns#" xmlns:rdf="http://www.w3.org/1999/02/22-rdf-syntax-ns#" xmlns:svg="http://www.w3.org/2000/svg" xmlns="http://www.w3.org/2000/svg" version="1.1" width="364.65625" height="213.125" id="svg2">
  <defs id="defs4"/>
  <metadata id="metadata7">
    <rdf:RDF>
      <cc:Work rdf:about="">
        <dc:format>image/svg+xml</dc:format>
        <dc:type rdf:resource="http://purl.org/dc/dcmitype/StillImage"/>
        <dc:title/>
      </cc:Work>
    </rdf:RDF>
  </metadata>
  <g transform="translate(-195.46875,-106.375)" id="layer1">
    <path d="m 536.89608,160.39748 c 0,0 -7.07107,-20.70812 -32.32488,-31.31473 -25.25381,-10.6066 -107.58125,-19.19289 -152.53303,-11.61675 -44.95179,7.57614 -110.10663,23.73858 -128.28938,48.9924 -18.18274,25.25381 -29.29442,34.34518 -14.64721,82.32743 14.64721,47.98225 106.06602,63.13453 106.06602,63.13453 0,0 82.32743,10.10153 144.95689,-23.2335 62.62946,-33.33504 74.24621,-56.06347 74.24621,-56.06347 0,0 15.65736,-16.66752 16.16244,-38.89087 0.50508,-22.22336 -13.63706,-28.28427 -13.63706,-28.28427 0,0 -15.65736,-13.13199 -35.35534,-7.57615 -19.69797,5.55584 -19.69797,6.06092 -28.78935,7.57615 -9.09137,1.51522 -19.69797,-2.02031 -30.30457,0 -10.6066,2.0203 -59.599,23.73858 -105.56094,29.7995 -45.96194,6.06091 -65.65992,2.52538 -78.28682,6.06091 -12.62691,3.53554 -19.1929,11.11168 -24.24367,6.06092 -5.05076,-5.05077 8.08122,-19.1929 24.74874,-21.71828 16.66752,-2.52538 18.68782,1.01015 40.91118,0.50507 22.22336,-0.50507 77.78175,-29.7995 142.93658,-35.86041 65.15484,-6.06092 93.94419,10.10152 93.94419,10.10152 z" id="path3050" style="fill:#8a4b38;stroke:none"/>
  </g>
</svg>